# xmcd CD database file
#
# Track frame offsets:
#	150
#	21110
#	48589
#	69112
#	89491
#	103741
#	125566
#	140468
#	162494
#	183174
#	204066
#	224371
#	241322
#	257421
#
# Disc length: 3753 seconds
#
# Revision: 0
# Processed by: cddbd v1.5.2PL0 Copyright (c) Steve Scherf et al.
# Submitted via: CDex 1.51
#
DISCID=bf0ea70e
DTITLE=Climax Jazz Band - TRAVELLING ON
DYEAR=1999
DGENRE=Jazz
TTITLE0=Nyboders Pris
TTITLE1=Melancholy
TTITLE2=Travelling On
TTITLE3=Once In A While
TTITLE4=Wildcat Blues
TTITLE5=Schlafen Mein Prinschen
TTITLE6=Willow Tree
TTITLE7=Maple Leaf Rag
TTITLE8=Moose March
TTITLE9=Marie
TTITLE10=Persian Market
TTITLE11=La Harpe St. Blues
TTITLE12=Potato Head Blues
TTITLE13=Shine
EXTD=YEAR: 1999
EXTT0=
EXTT1=
EXTT2=
EXTT3=
EXTT4=
EXTT5=
EXTT6=
EXTT7=
EXTT8=
EXTT9=
EXTT10=
EXTT11=
EXTT12=
EXTT13=
PLAYORDER=
